inDegrees=no
num_controls=7
num_derivatives=13
num_iterations=157
num_multipliers=7
num_parameters=0
num_slacks=7
num_states=26
objective=5.785056
objective_accelerations=0.683144
objective_balance=0.015712
objective_effort=0.488409
objective_height=4.527411
objective_ligament=0.070380
solver_duration=1353.415977
status=Solve_Succeeded
success=true
DataType=double
version=3
OpenSimVersion=4.4-2022-07-23-0e9fedc
endheader
time	/jointset/ground_pelvis/pelvis_tilt/value	/jointset/ground_pelvis/pelvis_tx/value	/jointset/ground_pelvis/pelvis_ty/value	/jointset/hip_r/hip_flexion_r/value	/jointset/hip_r/hip_adduction_r/value	/jointset/hip_r/hip_rotation_r/value	/jointset/back/lumbar_extension/value	/jointset/patellofemoral_r/patellar_flexion_r/value	/jointset/knee_r/knee_flexion_r/value	/jointset/knee_r/knee_adduction_r/value	/jointset/knee_r/knee_rotation_r/value	/jointset/ankle_r/ankle_angle_r/value	/jointset/subtalar_r/subtalar_angle_r/value	/jointset/ground_pelvis/pelvis_tilt/speed	/jointset/ground_pelvis/pelvis_tx/speed	/jointset/ground_pelvis/pelvis_ty/speed	/jointset/hip_r/hip_flexion_r/speed	/jointset/hip_r/hip_adduction_r/speed	/jointset/hip_r/hip_rotation_r/speed	/jointset/back/lumbar_extension/speed	/jointset/patellofemoral_r/patellar_flexion_r/speed	/jointset/knee_r/knee_flexion_r/speed	/jointset/knee_r/knee_adduction_r/speed	/jointset/knee_r/knee_rotation_r/speed	/jointset/ankle_r/ankle_angle_r/speed	/jointset/subtalar_r/subtalar_angle_r/speed	/forceset/tau_hip_flexion_r	/forceset/tau_hip_adduction_r	/forceset/tau_hip_rotation_r	/forceset/tau_knee_flexion_r	/forceset/tau_ankle_angle_r	/forceset/tau_subtalar_angle_r	/forceset/tau_lumbar_extension	lambda_cid13_p0	lambda_cid14_p0	lambda_cid14_p1	lambda_cid14_p2	lambda_cid14_p3	lambda_cid14_p4	lambda_cid14_p5	/jointset/ground_pelvis/pelvis_tilt/accel	/jointset/ground_pelvis/pelvis_tx/accel	/jointset/ground_pelvis/pelvis_ty/accel	/jointset/hip_r/hip_flexion_r/accel	/jointset/hip_r/hip_adduction_r/accel	/jointset/hip_r/hip_rotation_r/accel	/jointset/back/lumbar_extension/accel	/jointset/patellofemoral_r/patellar_flexion_r/accel	/jointset/knee_r/knee_flexion_r/accel	/jointset/knee_r/knee_adduction_r/accel	/jointset/knee_r/knee_rotation_r/accel	/jointset/ankle_r/ankle_angle_r/accel	/jointset/subtalar_r/subtalar_angle_r/accel	gamma_cid13_p0	gamma_cid14_p0	gamma_cid14_p1	gamma_cid14_p2	gamma_cid14_p3	gamma_cid14_p4	gamma_cid14_p5
0	5.122397143315255e-05	0.1279081604978929	0.9343377585557144	0.1934208783645156	-0.2164147548954201	-0.2374238857354564	-0.2903791543005566	0.2311793314021698	0.2311793314021609	0.1073915556272313	0.1620924924143435	0.08934340440958972	0.07840443784203929	0	0	0	0	0	0	0	0	0	0	0	0	0	0.1167591290046475	-0.06351808823369266	0.001210870172484323	-0.2496065446902892	0.1266820368149949	-0.06302772512034058	-0.03578748385575272	-29.52033626882262	-4.322296431371578	-24.09096306535445	-0.3505670754765013	2.038708290063069	-606.76654333182	57.41093212188944	-2.17852516668063	-1.964118639638243	-0.9311419001812619	10.76137649758965	0.04352529468072929	1.999445607411872	-6.485308551859474	10.78116464082581	10.78116464082587	-2.915119894559285	0.5921708535792013	2.907930515367279	0.9079353417315368	4.013548607275439e-08	2.202086863660577e-08	-3.092570783536464e-07	2.4325762909878e-07	1.306377425192129e-08	1.618105393332189e-07	-2.867968453330853e-07
0.01	-5.104483669519266e-05	0.1278112777894019	0.9342925088160299	0.1939447112893167	-0.216410894285584	-0.2373243906853143	-0.290705136953955	0.2317079654405976	0.2317079654404231	0.1072450305979219	0.162119032786165	0.08948629874775985	0.07845117326705656	-0.02037134407310474	-0.01926954358056672	-0.009024066980031423	0.1042688530297126	0.0007510423142636613	0.01979824612115379	-0.06475337157985335	0.1052324774847308	0.1052324774847316	-0.02912510579522522	0.005284617746760635	0.02845666600266502	0.009286846818999248	0.112277148328486	-0.06848830152641117	0.001507238298190791	-0.2454744002520815	0.1203816161112003	-0.05663729155969709	-0.03172927902295163	-29.52670201933008	-6.040880337902257	-21.43733918856154	-0.9782830172865615	2.221095648256414	-608.4156921302878	62.55942587576373	-1.954078863176834	-1.892319887292847	-0.8841245912484713	10.18497975988641	0.08772769434850972	1.954949348770584	-6.403877595784761	10.32013174834357	10.32013174834367	-2.884247469409595	0.4931368318071757	2.796210389905977	0.9300038251517204	4.875039110322744e-08	7.660175153809282e-09	-3.497061308227816e-07	2.753609508988429e-07	3.084094619237088e-08	3.059833083651563e-08	-3.250834059893857e-07
0.02	-0.0003545550526779085	0.1275249101110995	0.9341578013076778	0.1954963007553038	-0.2164001564537151	-0.2370299261271283	-0.2916653585500972	0.2332740927428731	0.2332740927428731	0.106812646201097	0.1621977252552141	0.08991009489538719	0.07858896605489735	-0.04024828156823256	-0.03789699396229009	-0.01789155373351559	0.2055513082283949	0.00137544441045464	0.03899390161441202	-0.1268477885491446	0.2074986528113379	0.2074986528113412	-0.05717187348667527	0.01043041935679996	0.05618036189292405	0.01821147256470381	0.1077951676528217	-0.0734585148190021	0.001803606425980883	-0.2413422558137459	0.1140811954075078	-0.05024685799889754	-0.0276710741898327	-29.54527432768188	-7.675423144795669	-18.78510020610165	-1.587387665561995	2.439067231702947	-608.718577179401	67.42616947420515	-2.079643851085046	-1.835699999869726	-0.8998258548718017	10.16409693138358	0.01819725106619283	1.878927481832762	-5.953517629746919	10.18790420920114	10.18790420920151	-2.699452273804243	0.5644076262349609	2.761336492885927	0.8354911270725419	5.73652961337005e-08	-6.700518328987203e-09	-3.901551832919168e-07	3.074642726989059e-07	4.861811813282048e-08	-1.006138776601876e-07	-3.633699666456862e-07
0.03	-0.0008547657192491047	0.1270554189772719	0.9339348627076546	0.1980464993218238	-0.21638386620375	-0.236546895323358	-0.2932330556018732	0.2358483791535035	0.2358483791536018	0.1061052933664864	0.1623273734723979	0.09060743786074303	0.07881414862360346	-0.05970614201684699	-0.05589910318014067	-0.02669589057995841	0.304005089397725	0.001873425367809114	0.05752637705810822	-0.1862805147687386	0.3068765612907073	0.306876561290707	-0.08413615876153421	0.01543063342185064	0.08316586539618734	0.0267819035473874	0.1028011113856111	-0.06935915668862937	0.002026934367112947	-0.2372787674928775	0.1097188304420581	-0.05052912079865604	-0.02340252947469895	-29.57522143033267	-9.081804664132873	-19.11584216155985	-1.578168665730113	2.685276443590124	-608.9859586532983	65.81262206865796	-1.865696826818821	-1.767137144199068	-0.870716898759522	9.613522801596126	0.06422380166861116	1.827587326513609	-5.876484062122443	9.740412454125565	9.7404124541249	-2.670567318898572	0.4575999393602068	2.648807167764864	0.861324321398615	5.9494524298204e-08	-1.79283042105472e-08	-3.844117804544895e-07	3.078425125061725e-07	5.868198567529649e-08	-2.058636795859178e-07	-3.599762208403504e-07
0.04	-0.001546922927331974	0.1264089725989743	0.9336238848793209	0.2015667365183838	-0.2163628710874768	-0.2358811038149572	-0.2953827467046609	0.2394019803064139	0.2394019803064144	0.105133167546236	0.162504978158526	0.09157096583887983	0.07912373654964282	-0.07863758986817605	-0.07328804285628428	-0.03549939939561986	0.3995590342426055	0.002316417669139202	0.07554604253684191	-0.2432465987505842	0.4033616012429048	0.4033616012428991	-0.1101264706192551	0.02002171319572538	0.1094173644481804	0.03509254403135877	0.09780705511815829	-0.06525979855835903	0.002250262307040637	-0.2332152791720827	0.1053564654765372	-0.05081138359854302	-0.01913398475969754	-29.61516607297334	-10.41177372504201	-19.44917648602434	-1.550292725582585	2.956555442581807	-608.0305885893191	63.94099611261856	-1.974361331627795	-1.713066091528463	-0.8996602487155176	9.584129666493652	0.007199519861283941	1.776365488840262	-5.460189182197157	9.609330503766795	9.609330503766822	-2.504657590376617	0.4825807679998025	2.614535602631743	0.7835330273300422	6.149002716650195e-08	-2.909149405909201e-08	-3.77715955858164e-07	3.075666269115258e-07	6.858681601369057e-08	-3.105781741596691e-07	-3.55723087272919e-07
0.05	-0.002426335326003881	0.1255917525731573	0.9332245776981881	0.2060287201046103	-0.2163379987268303	-0.2350383651942309	-0.2980892492519827	0.2439063078972701	0.2439063078972632	0.1039065331659284	0.1627271389994326	0.09279337237631285	0.07951483198086635	-0.0971609753212108	-0.0900471161857849	-0.04438189010621282	0.4923539202054257	0.002651403930957903	0.09288492520590035	-0.297648295899205	0.497021685882874	0.4970216858828642	-0.1350388848227541	0.02435035855368494	0.1349453691180479	0.04309025917877693	0.09256292891942534	-0.06350217055144441	0.002487989649191958	-0.229887264511339	0.1012130794659975	-0.04894585190081027	-0.01474287711125075	-29.66357189990671	-11.5527961520902	-18.79838315204286	-1.700167956157011	2.965215147080052	-607.2569299036676	64.12501584492564	-1.778731361992966	-1.640987238379007	-0.885584435317101	9.054606199315277	0.04565921175426929	1.695197173756181	-5.369317758728643	9.172000473451387	9.172000473450803	-2.460332567173453	0.3990513931944309	2.504149541881261	0.8024267929111307	5.46981789442395e-08	-4.075299434367233e-08	-3.232999024176073e-07	2.181801260977364e-07	7.294836932610447e-08	-4.1190677056296e-07	-2.665242278941337e-07
0.06	-0.00348846242118723	0.1246102099571014	0.932735837419332	0.2114041401780873	-0.216309974297081	-0.2340257282432487	-0.3013276003262998	0.2493327669403821	0.2493327669403828	0.1024356147971782	0.1629907952886488	0.09426750228898852	0.07998481177045676	-0.1151805291682683	-0.1061525609040611	-0.0533860189403178	0.5822463316938155	0.002946831489265601	0.1095257085876561	-0.3496163041491707	0.5877878916964185	0.5877878916964048	-0.1589832682997248	0.02832080285166085	0.1597620394965934	0.05086941570472939	0.08731880272069613	-0.0617445425445452	0.002725716991465581	-0.2265592498506078	0.09706969345544814	-0.04708032020310136	-0.0103517694627929	-29.7185082053375	-12.62509962308132	-18.14850368117366	-1.835110077649621	2.985542810844863	-605.3972700834845	64.08849674175192	-1.873595010432178	-1.582340369283689	-0.9239878734179141	9.003634771607597	-0.0007122208409287224	1.63674563137972	-4.973451402466038	9.030554738481872	9.03055473848196	-2.311051445070949	0.4109405560030999	2.47226874436721	0.739821303036849	4.753633699184819e-08	-5.243547612029625e-08	-2.668745761836094e-07	1.250415993799831e-07	7.707652150058236e-08	-5.130928028327578e-07	-1.73748706375923e-07
0.07000000000000001	-0.004728815737705509	0.1234708796771356	0.932156192998565	0.2176647140831592	-0.2162796730903549	-0.2328502194983123	-0.3050730217147847	0.2556528195366733	0.2556528195366957	0.1007310849301339	0.1632926453270415	0.09598619394254862	0.08053089857484449	-0.1328080952194976	-0.1216031629203038	-0.06257808759089108	0.669392811274564	0.003112038292018255	0.1254405786780831	-0.3990750615315079	0.675746137074114	0.6757461370741003	-0.1817711174970493	0.03199205299256404	0.1838592072198079	0.0583205756465077	0.08179013095044525	-0.05929402539990652	0.002943515834695489	-0.2237270759799082	0.09343427850723732	-0.04548599884131182	-0.005811179627512985	-29.77794874969857	-13.56805782102725	-17.61111327058294	-1.932300611077543	2.903205784785924	-603.8185724859976	63.78070292562904	-1.695019391947644	-1.5098548274101	-0.9222035625936236	8.498811615003259	0.02492636359228999	1.548565574484764	-4.87315110338183	8.606976443576539	8.60697644357648	-2.239940426248427	0.3366692549882171	2.36087984792254	0.7436321599061262	3.430815948994399e-08	-6.567404616810522e-08	-1.921730926030369e-07	-6.389693460073279e-08	7.904217025628318e-08	-6.142934736459817e-07	-4.501502697057416e-09
